{
  "accessors": [
    {
      "bufferView": 0,
      "byteOffset": 0,
      "componentType": 5123,
      "count": 150789,
      "max": [
        31346.0
      ],
      "min": [
        0.0
      ],
      "name": "buffer-0-group-0-mesh-0-indices",
      "type": "SCALAR"
    },
    {
      "bufferView": 1,
      "byteOffset": 0,
      "componentType": 5126,
      "count": 31347,
      "max": [
        1.5254460573196411,
        4.028687000274658,
        0.595084011554718
      ],
      "min": [
        -1.5281709432601929,
        -0.8092920184135437,
        -0.5712850093841553
      ],
      "name": "buffer-0-group-0-mesh-0-position",
      "type": "VEC3"
    },
    {
      "bufferView": 1,
      "byteOffset": 376164,
      "componentType": 5126,
      "count": 31347,
      "max": [
        1.0,
        1.0,
        1.0
      ],
      "min": [
        -1.0,
        -1.0,
        -1.0
      ],
      "name": "buffer-0-group-0-mesh-0-normal",
      "type": "VEC3"
    },
    {
      "bufferView": 2,
      "byteOffset": 0,
      "componentType": 5126,
      "count": 31347,
      "max": [
        0.9997270107269287,
        -0.0
      ],
      "min": [
        0.0,
        -0.9997270107269287
      ],
      "name": "buffer-0-group-0-mesh-0-texcoord",
      "type": "VEC2"
    },
    {
      "bufferView": 0,
      "byteOffset": 301578,
      "componentType": 5123,
      "count": 2550,
      "max": [
        543.0
      ],
      "min": [
        0.0
      ],
      "name": "buffer-0-group-1-mesh-0-indices",
      "type": "SCALAR"
    },
    {
      "bufferView": 1,
      "byteOffset": 752328,
      "componentType": 5126,
      "count": 544,
      "max": [
        -0.9984470009803772,
        1.1695560216903687,
        0.5590310096740723
      ],
      "min": [
        -1.437464952468872,
        0.7103109955787659,
        -0.6018019914627075
      ],
      "name": "buffer-0-group-1-mesh-0-position",
      "type": "VEC3"
    },
    {
      "bufferView": 1,
      "byteOffset": 758856,
      "componentType": 5126,
      "count": 544,
      "max": [
        0.9997983574867249,
        0.9992055296897888,
        0.998590886592865
      ],
      "min": [
        -0.9993160367012024,
        -0.9889557361602783,
        -0.9963550567626953
      ],
      "name": "buffer-0-group-1-mesh-0-normal",
      "type": "VEC3"
    },
    {
      "bufferView": 2,
      "byteOffset": 250776,
      "componentType": 5126,
      "count": 544,
      "max": [
        0.9898930191993713,
        -0.013365999795496464
      ],
      "min": [
        0.019404999911785126,
        -0.9922609925270081
      ],
      "name": "buffer-0-group-1-mesh-0-texcoord",
      "type": "VEC2"
    }
  ],
  "asset": {
    "generator": "Obj2GltfConverter",
    "version": "2.0"
  },
  "bufferViews": [
    {
      "buffer": 0,
      "byteLength": 306678,
      "byteOffset": 0,
      "name": "buffer-0-bufferview-ushort",
      "target": 34963
    },
    {
      "buffer": 0,
      "byteLength": 765384,
      "byteOffset": 306684,
      "byteStride": 12,
      "name": "buffer-0-bufferview-vec3",
      "target": 34962
    },
    {
      "buffer": 0,
      "byteLength": 255128,
      "byteOffset": 1072072,
      "byteStride": 8,
      "name": "buffer-0-bufferview-vec2",
      "target": 34962
    }
  ],
  "buffers": [
    {
      "byteLength": 1327200,
      "name": "buffer-0",
      "uri": "Mindshow Developer.bin"
    }
  ],
  "images": [
    {
      "mimeType": "image/png",
      "name": "Baked_image.png-diffuse-image",
      "uri": "Bake.png"
    },
    {
      "mimeType": "image/png",
      "name": "Tex_0179_0.dds_burrito1.png-diffuse-image",
      "uri": "E:/3D Models/Burrito (DR2)/Textures/burrito1.png"
    }
  ],
  "materials": [
    {
      "alphaMode": "OPAQUE",
      "doubleSided": true,
      "name": "Baked_image.png",
      "pbrMetallicRoughness": {
        "baseColorFactor": [
          0.64,
          0.64,
          0.64,
          1.0
        ],
        "baseColorTexture": {
          "index": 0,
          "texCoord": 0
        },
        "metallicFactor": 0.0,
        "roughnessFactor": 0.7448017359246658
      }
    },
    {
      "alphaMode": "OPAQUE",
      "doubleSided": true,
      "name": "Tex_0179_0.dds_burrito1.png",
      "pbrMetallicRoughness": {
        "baseColorFactor": [
          0.64,
          0.64,
          0.64,
          1.0
        ],
        "baseColorTexture": {
          "index": 1,
          "texCoord": 0
        },
        "metallicFactor": 0.0,
        "roughnessFactor": 0.7493216756721951
      }
    }
  ],
  "meshes": [
    {
      "name": "buffer-0-mesh-0",
      "primitives": [
        {
          "attributes": {
            "POSITION": 1,
            "NORMAL": 2,
            "TEXCOORD_0": 3
          },
          "indices": 0,
          "material": 0,
          "mode": 4
        },
        {
          "attributes": {
            "POSITION": 5,
            "NORMAL": 6,
            "TEXCOORD_0": 7
          },
          "indices": 4,
          "material": 1,
          "mode": 4
        }
      ]
    }
  ],
  "nodes": [
    {
      "mesh": 0,
      "name": "node-0"
    }
  ],
  "samplers": [
    {
      "name": "Baked_image.png-diffuse-sampler",
      "wrapS": 10497,
      "wrapT": 10497
    },
    {
      "name": "Tex_0179_0.dds_burrito1.png-diffuse-sampler",
      "wrapS": 10497,
      "wrapT": 10497
    }
  ],
  "scenes": [
    {
      "name": "scene-0",
      "nodes": [
        0
      ]
    }
  ],
  "textures": [
    {
      "name": "Baked_image.png-diffuse-texture",
      "sampler": 0,
      "source": 0
    },
    {
      "name": "Tex_0179_0.dds_burrito1.png-diffuse-texture",
      "sampler": 1,
      "source": 1
    }
  ]
}